<svg width="26" height="26" viewBox="0 0 26 26" fill="none" xmlns="http://www.w3.org/2000/svg">
<g id="shield-check-line 1">
<path id="Vector" d="M13 1.08333L21.9016 3.06148C22.3974 3.17163 22.75 3.61126 22.75 4.11902V14.938C22.75 17.1112 21.6639 19.1408 19.8556 20.3463L13 24.9167L6.14445 20.3463C4.33616 19.1408 3.25 17.1112 3.25 14.938V4.11902C3.25 3.61126 3.60266 3.17163 4.09833 3.06148L13 1.08333ZM13 3.30285L5.41667 4.98803V14.938C5.41667 16.3868 6.14077 17.7398 7.3463 18.5435L13 22.3127L18.6537 18.5435C19.8592 17.7398 20.5833 16.3868 20.5833 14.938V4.98803L13 3.30285ZM17.8234 8.90698L19.3555 10.439L12.4612 17.3333L7.86499 12.7372L9.39706 11.205L12.4604 14.2685L17.8234 8.90698Z" fill="white"/>
</g>
</svg>
